# xmcd CD database file
#
# Track frame offsets:
#	187
#	22994
#	41444
#	61614
#	92442
#	110934
#	134922
#	155164
#	179364
#	196812
#	230712
#	254332
#
# Disc length: 3691 seconds
#
# Revision: 8
# Processed by: cddbd v1.5.2PL0 Copyright (c) Steve Scherf et al.
# Submitted via: CDex 1.51
#
DISCID=a50e690c
DTITLE=GAMMA RAY - INSANITY AND GENIUS
DYEAR=1993
DGENRE=Heavy Metal
TTITLE0=Tribute To The Past
TTITLE1=No Return
TTITLE2=Last Before The Storm
TTITLE3=The Cave Principle
TTITLE4=Future Madhouse
TTITLE5=Gamma Ray (edited version)
TTITLE6=Insanity and Genius
TTITLE7=18 Years
TTITLE8=Your Torn Is Over
TTITLE9=Heal Me
TTITLE10=Brothers
TTITLE11=Heroes *
EXTD=YEAR: 1993
EXTT0=
EXTT1=
EXTT2=
EXTT3=
EXTT4=
EXTT5=
EXTT6=
EXTT7=
EXTT8=
EXTT9=
EXTT10=
EXTT11=
PLAYORDER=
